<?xml version="1.0" encoding="UTF-8" standalone="no"?>
<svg
   width="1387.0792"
   height="212.16966"
   viewBox="0 0 1387.0792 212.16966"
   version="1.1"
   id="svg40"
   sodipodi:docname="logo.svg"
   inkscape:version="1.2.1 (9c6d41e410, 2022-07-14, custom)"
   xmlns:inkscape="http://www.inkscape.org/namespaces/inkscape"
   xmlns:sodipodi="http://sodipodi.sourceforge.net/DTD/sodipodi-0.dtd"
   xmlns="http://www.w3.org/2000/svg"
   xmlns:svg="http://www.w3.org/2000/svg">
  <defs
     id="defs44" />
  <sodipodi:namedview
     id="namedview42"
     pagecolor="#ffffff"
     bordercolor="#666666"
     borderopacity="1.0"
     inkscape:showpageshadow="2"
     inkscape:pageopacity="0.0"
     inkscape:pagecheckerboard="0"
     inkscape:deskcolor="#d1d1d1"
     showgrid="false"
     inkscape:zoom="0.5135"
     inkscape:cx="700.09737"
     inkscape:cy="469.32814"
     inkscape:window-width="948"
     inkscape:window-height="475"
     inkscape:window-x="26"
     inkscape:window-y="23"
     inkscape:window-maximized="0"
     inkscape:current-layer="svg40" />
  <path
     fill-rule="nonzero"
     fill="#517282"
     fill-opacity="1"
     d="M 571.9464,161.85154 V 57.535158 h -20.66016 l 0.1875,104.316382 z m 0,0"
     id="path2" />
  <path
     fill-rule="nonzero"
     fill="#da7f8f"
     fill-opacity="1"
     d="m 646.67687,37.757808 h -95.39063 v 19.77735 h 95.39063 z m 0,0"
     id="path4" />
  <path
     fill-rule="nonzero"
     fill="#517282"
     fill-opacity="1"
     d="m 279.62999,139.90234 c 9.6875,9.7578 21.29297,14.6367 34.80469,14.6367 13.51172,0 25.13281,-4.9258 34.85938,-14.7851 9.72265,-9.8516 14.58203,-21.4375 14.58203,-34.75784 0,-13.250002 -4.69532,-24.371102 -14.08985,-33.371102 -9.39453,-9 -21.04687,-13.49609 -34.95312,-13.49609 -14.04297,0 -25.84375,4.53125 -35.40235,13.59375 -9.55859,9.0664 -14.33593,20.22265 -14.33593,33.472652 0,13.38283 4.84375,24.95313 14.53515,34.70703 M 314.83312,37.757808 c 19.57812,0 36.1875,6.54297 49.83594,19.62891 13.64453,13.08594 20.46875,29.15234 20.46875,48.207032 0,18.91799 -6.82422,35.11719 -20.46875,48.59769 -13.64844,13.4843 -30.19532,20.2226 -49.64063,20.2226 -19.84375,0 -36.63672,-6.789 -50.37891,-20.3711 -13.74609,-13.5781 -20.61718,-29.7461 -20.61718,-48.49997 0,-18.753912 6.87109,-34.742192 20.61718,-47.960942 13.74219,-13.21484 30.47266,-19.82422 50.1836,-19.82422"
     id="path6" />
  <path
     fill-rule="nonzero"
     fill="#517282"
     fill-opacity="1"
     d="m 431.90343,154.33984 20.37109,0.1992 c 16.48047,0 29.96094,-4.2187 40.44532,-12.6562 10.48047,-8.4375 15.71875,-19.6133 15.71875,-33.5235 0,-12.128872 -3.98828,-23.054652 -11.96485,-32.777312 -7.97656,-9.72265 -17.89453,-14.98047 -29.76172,-15.77343 -2.04296,-0.26172 -13.64453,-0.46094 -34.80859,-0.59375 z M 458.0089,37.757808 c 11.73437,0 22.29687,2.01172 31.69141,6.03125 9.39453,4.02344 16.89453,9.37891 22.49609,16.07032 5.60547,6.6914 9.89062,14.05859 12.85547,22.09765 2.96875,8.04688 4.45312,16.38282 4.45312,25.019512 0,11.6016 -1.86718,21.7539 -5.58984,30.4532 -3.72266,8.7031 -8.83594,15.5273 -15.32422,20.4726 -6.49609,4.9414 -13.28516,8.6992 -20.37109,11.2695 -7.08594,2.5704 -14.82032,4.3204 -23.1875,5.2422 h -54.38672 c 0.13281,-5.9336 0.19531,-16.25 0.19531,-30.9492 v -26.7969 c 0,-2.9687 -0.0312,-7.5156 -0.0977,-13.64841 -0.0664,-6.128902 -0.0977,-10.808592 -0.0977,-14.039062 0,-20.76562 0.19531,-37.83984 0.59375,-51.22266 z m 0,0"
     id="path8" />
  <path
     fill-rule="nonzero"
     fill="#517282"
     fill-opacity="1"
     d="m 646.67687,154.73434 h -95.39063 v 19.6797 h 95.39063 z m 0,0"
     id="path10" />
  <path
     fill-rule="nonzero"
     fill="#517282"
     fill-opacity="1"
     d="m 646.67687,94.417968 h -95.39063 v 20.660172 l 95.39063,-0.1875 z m 0,0"
     id="path12" />
  <path
     fill-rule="nonzero"
     fill="#517282"
     fill-opacity="1"
     d="m 774.82145,42.011718 c -0.1329,21.02734 -0.1993,65.164022 -0.1993,132.402322 h -16.8086 c -2.9687,-3.8906 -14.6992,-20.7656 -35.2031,-50.6289 -14.4375,-21.62108 -24.7851,-36.617172 -31.05077,-44.992172 v 95.621072 h -20.17187 c -0.13282,-14.039 -0.19532,-36.7851 -0.19532,-68.2304 0,-31.574262 -0.0664,-54.382862 -0.19922,-68.425832 h 17.20704 c 31.04684,44.96094 52.70314,76.734332 64.96484,95.324232 V 37.757808 h 21.6563 z m 0,0"
     id="path14" />
  <path
     fill-rule="nonzero"
     fill="#517282"
     fill-opacity="1"
     d="m 856.19645,165.91014 46.375,-127.363262 h 8.5039 l -50.8243,135.867162 h -9.5898 l -50.332,-135.867162 h 9.4922 z m 0,0"
     id="path16" />
  <path
     fill-rule="nonzero"
     fill="#517282"
     fill-opacity="1"
     d="m 944.00105,174.41404 h -7.5117 V 38.550778 h 7.5117 z m 0,0"
     id="path18" />
  <path
     fill-rule="nonzero"
     fill="#517282"
     fill-opacity="1"
     d="m 981.77065,70.882808 c 0,8.24219 4.4179,15.06641 13.25,20.46875 4.8789,2.96875 13.15235,6.29688 24.82035,9.988292 5.0078,1.64843 8.9648,2.96484 11.8672,3.95312 2.8984,0.99217 6.5898,2.60547 11.0742,4.84767 4.4805,2.2422 7.9609,4.5 10.4336,6.7734 2.4687,2.2735 4.6601,5.3047 6.5742,9.0977 1.9102,3.789 2.8672,7.8945 2.8672,12.3086 0,10.2851 -3.9922,18.8711 -11.9649,25.7617 -7.9765,6.8867 -18.3281,10.332 -31.0468,10.332 h -5.2461 c -19.57815,0 -34.54305,-10.25 -44.89065,-30.7539 l 6.0312,-3.2617 c 5.1406,8.7695 10.9766,15.4727 17.5039,20.1211 6.5274,4.6484 14.60165,6.9727 24.22665,6.9727 9.8867,0 18.6054,-2.6524 26.1562,-7.961 7.543,-5.3047 11.3203,-11.75 11.3203,-19.332 0,-2.3047 -0.2461,-4.4297 -0.7422,-6.375 -0.496,-1.9453 -1.371,-3.7735 -2.621,-5.4883 -1.25,-1.7148 -2.3907,-3.1641 -3.4102,-4.3516 -1.0234,-1.1875 -2.7852,-2.4882 -5.293,-3.9062 -2.5039,-1.418 -4.3633,-2.5039 -5.5859,-3.2617 -1.2188,-0.7578 -3.4766,-1.7813 -6.7695,-3.0664 -3.3008,-1.2852 -5.5586,-2.1602 -6.7774,-2.6211 -1.2187,-0.461 -3.707,-1.3828 -7.4648,-2.7696 -11.4688,-3.75778 -19.71105,-7.05074 -24.72275,-9.886682 -11.6015,-6.46094 -17.3984,-15.09375 -17.3984,-25.90625 0,-9.89063 3.8359,-18.03125 11.5156,-24.42578 7.6836,-6.39453 17.51955,-9.59375 29.51955,-9.59375 17.2696,0 31.3789,8.04687 42.3203,24.1289 l -5.4375,3.16407 c -4.0234,-4.87891 -7.3554,-8.55079 -9.9882,-11.02344 -2.6368,-2.47266 -6.2461,-4.76172 -10.8282,-6.875 -4.582,-2.10938 -9.7382,-3.16406 -15.4726,-3.16406 -10.0235,0 -18.16415,2.45703 -24.42585,7.36718 -6.2656,4.91016 -9.3945,11.16016 -9.3945,18.73828"
     id="path20" />
  <path
     fill-rule="nonzero"
     fill="#517282"
     fill-opacity="1"
     d="m 1095.5832,174.41404 h -7.5157 V 38.550778 h 7.5157 z m 0,0"
     id="path22" />
  <path
     fill-rule="nonzero"
     fill="#517282"
     fill-opacity="1"
     d="m 1147.3449,149.44534 c 12.293,12.4922 27.0078,18.7383 44.1484,18.7383 17.1407,0 31.8594,-6.2461 44.1524,-18.7383 12.2929,-12.4922 18.4414,-27.2422 18.4414,-44.25003 0,-16.875002 -5.9688,-31.062502 -17.8946,-42.570312 -11.9375,-11.5 -26.7031,-17.2539 -44.3007,-17.2539 -17.668,0 -32.5821,5.78515 -44.7461,17.35546 -12.1641,11.56641 -18.2461,25.79297 -18.2461,42.667972 0,16.87501 6.1484,31.55861 18.4453,44.05081 m 44.5469,-110.894562 c 19.5781,0 36.1914,6.47657 49.8359,19.42969 13.6445,12.95313 20.4688,28.89063 20.4688,47.808592 0,18.78908 -6.8243,34.92188 -20.4688,48.40238 -13.6445,13.4843 -30.1953,20.2226 -49.6406,20.2226 -19.711,0 -36.4727,-6.7578 -50.2813,-20.2695 -13.8086,-13.5156 -20.7148,-29.6484 -20.7148,-48.40626 0,-18.753902 6.8711,-34.640622 20.6172,-47.660152 13.7422,-13.01953 30.4687,-19.52735 50.1836,-19.52735"
     id="path24" />
  <path
     fill-rule="nonzero"
     fill="#517282"
     fill-opacity="1"
     d="m 1387.0793,38.550778 c -0.1328,22.9375 -0.1993,68.226562 -0.1993,135.863262 h -6.9179 c -14.7031,-20.3711 -26.7656,-37.9023 -36.1953,-52.6054 -19.5743,-29.136762 -35.8594,-52.308642 -48.8477,-69.515672 V 174.41404 h -6.8203 c -0.1328,-15.6875 -0.1953,-38.3672 -0.1953,-68.0312 0,-30.125032 -0.07,-52.738312 -0.1992,-67.832062 h 7.2148 c 32.2383,46.27735 60.1875,87.507862 83.8516,123.699262 V 38.550778 Z m 0,0"
     id="path26" />
  <path
     fill-rule="nonzero"
     fill="#517282"
     fill-opacity="1"
     d="m 29.395622,182.81254 c 5.82812,8.8593 17.77344,11.3828 26.6289,5.5507 8.91797,-5.832 11.4375,-17.7148 5.60938,-26.6328 -10.54297,-16.0898 -8.1875,-27.3593 7.96094,-37.9023 8.85937,-5.8281 11.38281,-17.7149 5.55078,-26.628922 -5.83203,-8.91406 -17.71875,-11.38281 -26.63281,-5.60937 -8.91407,5.83203 -11.38282,17.773392 -5.60547,26.691392 10.53906,16.0899 8.18359,27.3594 -7.90625,37.8438 -8.91407,5.832 -11.4375,17.7734 -5.60547,26.6875"
     id="path28" />
  <path
     fill-rule="nonzero"
     fill="#517282"
     fill-opacity="1"
     d="m 64.715932,56.156248 c -8.69141,17.21485 -19.625,20.7461 -36.78125,12.05469 -9.47266,-4.76563 -21.0820297,-0.95313 -25.8437497,8.52344 -4.82422,9.47656 -1.01172,21.08203 8.4648397,25.847652 9.47657,4.82031 21.08204,1.00782 25.84766,-8.468752 8.6875,-17.21093 19.62109,-20.74218 36.77734,-12.10937 9.47657,4.82031 21.08204,1.00781 25.90625,-8.46485 4.765628,-9.47656 0.953128,-21.08203 -8.52343,-25.84765 -9.47657,-4.82031 -21.08203,-1.01172 -25.84766,8.46484"
     id="path30" />
  <path
     fill-rule="nonzero"
     fill="#517282"
     fill-opacity="1"
     d="m 65.501092,150.01174 c 0.61718,10.5976 9.69922,18.7265 20.29687,18.168 19.230468,-1.0665 27.808598,6.6171 28.874998,25.789 0.5586,10.6563 9.64063,18.7852 20.23828,18.168 10.65235,-0.5625 18.78516,-9.6445 18.16797,-20.2969 -0.5625,-10.5976 -9.64453,-18.7266 -20.29687,-18.1094 -19.17578,1.0664 -27.75391,-6.6172 -28.82032,-25.8476 -0.61718,-10.5977 -9.640618,-18.7266 -20.296868,-18.1641 -10.59375,0.6172 -18.72266,9.6992 -18.16406,20.293"
     id="path32" />
  <path
     fill-rule="nonzero"
     fill="#da7f8f"
     fill-opacity="1"
     d="m 111.20031,64.281248 c -1,-18.05859 -8.58985,-25.9414 -25.460938,-25.9414 -1.08985,0 -2.21094,0.043 -3.35938,0.10156 -0.39062,0.0195 -0.76953,0.0312 -1.14062,0.0312 -10.10156,0 -18.57031,-7.92188 -19.16016,-18.20313 -0.55859,-10.58984 7.57031,-19.67968 18.16016,-20.23828 0.39062,-0.0195 0.75781,-0.0312 1.1289,-0.0312 10.10938,0 18.58985,7.9218800000001 19.171878,18.1406300000001 1,18.08203 8.58984,25.94922 25.44922,25.94922 1.08984,0 2.21094,-0.0274 3.35937,-0.0977 0.39063,-0.0195 0.76953,-0.0391 1.14063,-0.0391 10.14844,0 18.57031,7.9375 19.16015,18.19922 0.57032,10.59765 -7.57031,19.67968 -18.16015,20.25 -0.37891,0.0195 -0.75,0.0273 -1.12891,0.0273 -10.10156,0 -18.58203,-7.92969 -19.16015,-18.14844"
     id="path34" />
  <path
     fill-rule="nonzero"
     fill="#da7f8f"
     fill-opacity="1"
     d="m 153.52062,50.441408 c -5.77344,-8.92188 -3.30078,-20.85938 5.61719,-26.64063 3.26171,-2.14062 6.92187,-3.16015 10.55078,-3.16015 6.26172,0 12.37109,3.0625 16.07031,8.71093 5.82812,8.91797 3.30859,20.85938 -5.53906,26.64063 -16.16016,10.52734 -18.5,21.80859 -7.97266,37.89844 5.83203,8.910152 3.3125,20.859412 -5.60937,26.628912 -3.23047,2.1328 -6.86719,3.1406 -10.48047,3.1406 -6.27735,0 -12.4375,-3.0703 -16.14844,-8.6875 -5.76953,-8.91014 -3.30078,-20.851542 5.60156,-26.691392 16.10938,-10.48047 18.44922,-21.76172 7.91016,-37.83984"
     id="path36" />
  <path
     fill-rule="nonzero"
     fill="#da7f8f"
     fill-opacity="1"
     d="m 213.11827,135.42974 c -3.39062,6.6914 -10.14843,10.5625 -17.16015,10.5625 -2.92969,0 -5.89063,-0.6797 -8.6875,-2.0899 -5.97266,-3.0195 -11.19141,-4.5625 -15.80078,-4.5625 -8.69141,0 -15.30078,5.4414 -20.97266,16.6719 -3.39844,6.6914 -10.1875,10.5586 -17.22656,10.5586 -2.92188,0 -5.89063,-0.6797 -8.67188,-2.0977 -9.48828,-4.8203 -13.30078,-16.3633 -8.48047,-25.8398 3.3711,-6.7305 10.15235,-10.5899 17.19141,-10.5899 2.92969,0 5.89063,0.668 8.66797,2.0586 5.98047,3.0196 11.19141,4.5703 15.82031,4.5586 8.69141,0 15.29297,-5.4101 20.96094,-16.6094 3.39844,-6.6914 10.16016,-10.5507 17.17969,-10.5507 2.91015,0 5.8789,0.6601 8.66015,2.082 9.53125,4.7695 13.28125,16.3789 8.51953,25.8477"
     id="path38" />
</svg>
